# xmcd
#
# Track frame offsets:
#	150
#	18830
#	31406
#	46753
#	62830
#	75375
#	89547
#	109268
#	129007
#	151356
#	161788
#	174523
#	188553
#	197577
#	207904
#
# Disc length: 2884 seconds
#
# Revision: 1
# Processed by: cddbd v1.5.2PL0 Copyright (c) Steve Scherf et al.
# Submitted via: audiograbber 1.83.01
#
DISCID=b60b420f
DTITLE=Ralph McTell - Streets Of London
DYEAR=1900
DGENRE=Blues
TTITLE0=Streets Of London
TTITLE1=Hesitation Blues
TTITLE2=Eight Frames A Second
TTITLE3=Spiral Staircase
TTITLE4=Mrs Adlam's Angels
TTITLE5=Nanna's Song
TTITLE6=Daddy's Here
TTITLE7=Michael In The Garden
TTITLE8=Factory Girl
TTITLE9=Clown
TTITLE10=All Things Change
TTITLE11=England 1914
TTITLE12=Blind Blake's Rag
TTITLE13=Kew Gardens
TTITLE14=Terminus
EXTD=
EXTT0=
EXTT1=
EXTT2=
EXTT3=
EXTT4=
EXTT5=
EXTT6=
EXTT7=
EXTT8=
EXTT9=
EXTT10=
EXTT11=
EXTT12=
EXTT13=
EXTT14=
PLAYORDER=
